<svg width="20" height="20" viewBox="0 0 20 20" fill="none" xmlns="http://www.w3.org/2000/svg">
<path d="M10 0C12.6522 0 15.1957 1.05357 17.0711 2.92893C18.9464 4.8043 20 7.34784 20 10C20 12.6522 18.9464 15.1957 17.0711 17.0711C15.1957 18.9464 12.6522 20 10 20C7.34784 20 4.8043 18.9464 2.92893 17.0711C1.05357 15.1957 0 12.6522 0 10C0 7.34784 1.05357 4.8043 2.92893 2.92893C4.8043 1.05357 7.34784 0 10 0ZM10 1.42857C7.72672 1.42857 5.54654 2.33163 3.93909 3.93909C2.33163 5.54654 1.42857 7.72672 1.42857 10C1.42857 12.2733 2.33163 14.4535 3.93909 16.0609C5.54654 17.6684 7.72672 18.5714 10 18.5714C12.2733 18.5714 14.4535 17.6684 16.0609 16.0609C17.6684 14.4535 18.5714 12.2733 18.5714 10C18.5714 7.72672 17.6684 5.54654 16.0609 3.93909C14.4535 2.33163 12.2733 1.42857 10 1.42857Z" fill="#B5B9C6"/>
<path d="M6.52782 9.16699H13.4723C13.9352 9.16699 14.1667 9.44477 14.1667 10.0003C14.1667 10.5559 13.9352 10.8337 13.4723 10.8337H6.52782C6.06486 10.8337 5.83337 10.5559 5.83337 10.0003C5.83337 9.44477 6.06486 9.16699 6.52782 9.16699Z" fill="#B5B9C6"/>
</svg>
