<svg width="20" height="20" viewBox="0 0 20 20" fill="none" xmlns="http://www.w3.org/2000/svg">
<path d="M10 0C12.6522 0 15.1957 1.05357 17.0711 2.92893C18.9464 4.8043 20 7.34784 20 10C20 12.6522 18.9464 15.1957 17.0711 17.0711C15.1957 18.9464 12.6522 20 10 20C7.34784 20 4.8043 18.9464 2.92893 17.0711C1.05357 15.1957 0 12.6522 0 10C0 7.34784 1.05357 4.8043 2.92893 2.92893C4.8043 1.05357 7.34784 0 10 0ZM10 1.42857C7.72672 1.42857 5.54654 2.33163 3.93909 3.93909C2.33163 5.54654 1.42857 7.72672 1.42857 10C1.42857 12.2733 2.33163 14.4535 3.93909 16.0609C5.54654 17.6684 7.72672 18.5714 10 18.5714C12.2733 18.5714 14.4535 17.6684 16.0609 16.0609C17.6684 14.4535 18.5714 12.2733 18.5714 10C18.5714 7.72672 17.6684 5.54654 16.0609 3.93909C14.4535 2.33163 12.2733 1.42857 10 1.42857Z" fill="#B5B9C6"/>
<path d="M6.5277 9.16699H13.4721C13.9351 9.16699 14.1666 9.44477 14.1666 10.0003C14.1666 10.5559 13.9351 10.8337 13.4721 10.8337H6.5277C6.06473 10.8337 5.83325 10.5559 5.83325 10.0003C5.83325 9.44477 6.06473 9.16699 6.5277 9.16699Z" fill="#B5B9C6"/>
<path d="M10.8334 6.52745V13.4719C10.8334 13.9349 10.5556 14.1663 10.0001 14.1663C9.44453 14.1663 9.16675 13.9349 9.16675 13.4719V6.52745C9.16675 6.06449 9.44453 5.83301 10.0001 5.83301C10.5556 5.83301 10.8334 6.06449 10.8334 6.52745Z" fill="#B5B9C6"/>
</svg>
